<svg width="220" height="49" viewBox="0 0 220 49" fill="none" xmlns="http://www.w3.org/2000/svg">
<path fill-rule="evenodd" clip-rule="evenodd" d="M28.7449 17.2806C30.9602 16.303 32.8871 16.4181 34.0564 17.0609C34.3839 17.241 34.6417 17.4705 34.822 17.7552C34.8791 17.8454 34.9212 17.9371 34.9577 18.0238C35.4201 17.4023 35.957 17.0355 36.5593 16.9202C37.1426 16.8088 37.6432 16.9663 37.9187 17.0589C38.5165 17.2601 38.9064 17.7919 39.1003 18.2474C39.3037 18.7255 39.4064 19.3829 39.1384 20.0023C39.0592 20.1853 38.9549 20.3977 38.866 20.5814C38.8341 20.6471 38.8029 20.7117 38.7732 20.7747C38.863 20.7603 38.9564 20.7486 39.0525 20.7435H39.2195C39.6028 20.7671 39.9528 20.9445 40.1892 21.2669C40.4132 21.5727 40.4693 21.9205 40.4841 22.1527C40.5143 22.6302 40.3984 23.1402 40.3025 23.4486L40.2292 23.6839L40.0945 23.8079C40.0774 23.8321 40.0502 23.8731 40.0124 23.9339C39.926 24.0731 39.7961 24.2997 39.6199 24.6419C39.3785 25.1106 39.2089 25.4493 39.1238 25.7562C39.0477 26.0307 39.062 26.202 39.1316 26.3548C39.3048 26.7352 39.6621 27.4918 39.5857 28.348C39.4999 29.3055 38.9128 30.1604 37.7283 30.8226C36.697 31.3989 35.7338 31.3925 34.9529 31.0413C34.2252 30.714 33.7456 30.1294 33.5105 29.6741L33.4079 29.4749V29.3724C33.3935 29.3542 33.3719 29.3292 33.3406 29.2991C33.204 29.1683 32.9011 28.9556 32.2986 28.765C31.8149 28.612 31.4715 28.7747 30.6355 29.137C29.8361 29.4835 28.7484 29.8884 27.3288 29.2894C26.3114 28.8599 25.815 28.7647 25.5447 28.7474C25.4154 28.7392 25.3151 28.7463 25.1931 28.7611C25.0826 28.7744 24.8701 28.8079 24.6433 28.8079C24.2303 28.8079 23.7691 28.7688 23.3415 28.5784C22.8766 28.3713 22.5302 28.0212 22.2966 27.5491C21.9405 26.8289 22.0685 26.039 22.4372 25.3607C22.8025 24.6891 23.4368 24.0464 24.282 23.4632C25.1415 22.8702 25.4482 22.491 25.5574 22.307C25.5176 22.2612 25.4682 22.2053 25.4197 22.1439C25.1606 21.8155 24.8306 21.2605 24.9861 20.4798C25.1289 19.7636 25.6251 19.1808 26.2322 18.7015C26.8519 18.2122 27.697 17.743 28.7449 17.2806ZM33.1697 18.6732C32.6324 18.378 31.3307 18.1511 29.488 18.9642C28.5068 19.3972 27.8196 19.7931 27.3728 20.1458C26.9143 20.5079 26.8097 20.7451 26.7908 20.8392C26.7849 20.8682 26.7661 20.8801 26.864 21.0042C26.8928 21.0407 26.9259 21.0782 26.9704 21.1292C27.0094 21.1739 27.0684 21.2406 27.1218 21.3079C27.1976 21.4035 27.3745 21.6318 27.4343 21.9515L27.4519 22.0941L27.4548 22.2601C27.43 23.0937 26.8138 23.9519 25.3269 24.9779C24.6276 25.4604 24.2358 25.9051 24.0535 26.2406C23.875 26.5691 23.9333 26.7079 23.946 26.7337C23.9811 26.8045 24.0105 26.8393 24.0271 26.8558C24.0424 26.8708 24.0608 26.8845 24.0906 26.8978C24.1658 26.9311 24.3192 26.9671 24.6433 26.9671C24.7272 26.9671 24.7857 26.9575 24.9724 26.9349C25.1479 26.9137 25.3733 26.8921 25.6619 26.9105C26.2274 26.9466 26.9418 27.1286 28.0447 27.5941C28.7461 27.89 29.2278 27.7416 29.904 27.4486C30.5438 27.1713 31.5845 26.6088 32.8533 27.0101C33.6517 27.2627 34.2249 27.5972 34.614 27.97C34.8954 28.2399 35.1175 28.5711 35.2058 28.9251C35.3106 29.0808 35.4858 29.2637 35.7077 29.3636C35.9252 29.4612 36.2764 29.5261 36.8308 29.2161C37.6285 28.7702 37.7343 28.3881 37.7527 28.1839C37.7799 27.8786 37.6524 27.5472 37.4568 27.1175C37.1575 26.4603 37.196 25.8206 37.3503 25.264C37.4958 24.7397 37.7645 24.2256 37.9841 23.7991C38.1765 23.4255 38.3308 23.1539 38.4499 22.9622C38.4984 22.8843 38.5438 22.8166 38.5847 22.7581C38.5856 22.7543 38.5867 22.7502 38.5876 22.7464C38.5557 22.7591 38.5218 22.7734 38.4851 22.7874C38.3742 22.83 38.0738 22.949 37.7312 22.9046C37.2727 22.8451 36.9778 22.5479 36.8161 22.2493C36.6101 21.8679 36.6342 21.4684 36.6765 21.2132C36.7219 20.9397 36.8156 20.6693 36.9079 20.4417C37.0024 20.2089 37.1138 19.9777 37.2097 19.7796C37.3116 19.5692 37.3909 19.4073 37.4499 19.2708C37.4528 19.264 37.4629 19.235 37.4597 19.1771C37.4563 19.1173 37.4389 19.0432 37.407 18.9681C37.3748 18.8925 37.3353 18.8349 37.3044 18.8011C37.3005 18.7969 37.2966 18.7932 37.2937 18.7904C37.0882 18.7238 36.9854 18.7125 36.905 18.7279C36.8551 18.7374 36.679 18.7812 36.4118 19.1517C36.1854 19.4657 36.0465 19.6475 35.9646 19.7562L35.9441 19.8245L35.8513 19.9495C35.7056 20.1462 35.4286 20.3977 35.0222 20.4769C34.5432 20.5702 34.0927 20.3863 33.7595 20.0423C33.5012 19.7754 33.3981 19.4766 33.3493 19.2523C33.3265 19.1468 33.3131 19.0466 33.3044 18.9779C33.2943 18.8984 33.2895 18.8557 33.282 18.8109C33.269 18.734 33.2604 18.7296 33.2673 18.7406C33.2767 18.7548 33.2663 18.7263 33.1697 18.6732ZM36.029 19.4749C36.0295 19.4714 36.0315 19.4677 36.032 19.4642C36.0322 19.4618 36.0318 19.4588 36.032 19.4564C36.0314 19.4626 36.0297 19.4689 36.029 19.4749ZM36.032 19.2689C36.0316 19.2651 36.0323 19.2608 36.032 19.2572C36.0302 19.2417 36.027 19.2276 36.0251 19.2161C36.0279 19.2331 36.0301 19.251 36.032 19.2689Z" fill="black"/>
<path fill-rule="evenodd" clip-rule="evenodd" d="M25.6335 10.6615C29.8875 8.6503 33.4501 8.95291 35.487 10.1527C36.0308 10.4731 36.4153 10.8556 36.6736 11.2923C36.9272 11.7214 37.027 12.1493 37.0818 12.4984C37.1083 12.6674 37.1268 12.8383 37.1423 12.9691C37.159 13.11 37.1739 13.2177 37.1931 13.3128C37.2225 13.4581 37.2567 13.5343 37.2917 13.5843C37.3084 13.5599 37.3225 13.5383 37.3308 13.5267C37.4201 13.4016 37.6721 13.0543 38.3611 12.0306C39.1912 10.7971 40.1028 10.1513 41.073 9.95247C42.0079 9.761 42.8276 10.0258 43.3562 10.2161C44.2176 10.5266 44.8333 11.3806 45.156 12.1927C45.4906 13.0354 45.6261 14.113 45.2351 15.0814C45.0877 15.4464 44.8918 15.8711 44.7068 16.2806C44.5163 16.7021 44.3287 17.125 44.1755 17.5296C44.0205 17.939 43.915 18.2935 43.8708 18.5784C43.8603 18.6468 43.8543 18.7052 43.8513 18.7542C44.258 18.5764 45.0174 18.211 45.9441 18.1585L46.1785 18.1595C46.712 18.1937 47.1567 18.4529 47.447 18.8773C47.7315 19.2934 47.8185 19.7946 47.8425 20.2005C47.8916 21.0307 47.7001 21.9748 47.5251 22.5775L47.4587 22.807L47.3113 22.9515C47.3272 22.934 47.3152 22.9456 47.2683 23.015C47.219 23.0879 47.1469 23.2021 47.0515 23.3665C46.8609 23.6951 46.5878 24.2063 46.2263 24.9583C45.7557 25.9374 45.3607 26.7668 45.157 27.554C44.9607 28.3126 44.9614 28.9621 45.2283 29.5902C45.5883 30.4372 46.1738 31.8028 46.0486 33.305C45.9154 34.9002 45.0112 36.4668 42.8259 37.7757C40.9927 38.8738 39.3498 38.832 38.0535 38.2074C36.8214 37.6134 36.0089 36.5457 35.6208 35.7406L35.529 35.5511V35.3411C35.5288 35.3658 35.5086 35.0909 35.0896 34.6605C34.6873 34.2474 33.9465 33.7281 32.6492 33.2884C31.315 32.8363 30.3039 33.3842 28.7204 34.1195C27.1829 34.8334 25.2897 35.575 22.7878 34.4437C20.7099 33.504 19.6143 33.2557 18.9363 33.2093C18.604 33.1866 18.3467 33.2106 18.0779 33.2454C17.8215 33.2786 17.4675 33.3372 17.0798 33.3372C16.2935 33.3372 15.5159 33.2558 14.8288 32.9281C14.106 32.5831 13.5719 32.0092 13.1999 31.2034C12.6797 30.0756 12.8294 28.7778 13.4626 27.5296C14.0944 26.2845 15.2354 25.0171 16.8552 23.8197C19.7532 21.6773 19.9444 20.5682 19.9411 20.2249C19.929 20.203 19.9049 20.1593 19.8552 20.0921C19.7966 20.0129 19.7267 19.9282 19.6335 19.8138C19.5456 19.7058 19.4408 19.5753 19.3367 19.4339C18.901 18.8422 18.4396 17.9792 18.6658 16.762C18.8821 15.5985 19.6588 14.5459 20.8035 13.5775C21.956 12.6025 23.5692 11.6374 25.6335 10.6615ZM34.5525 11.7376C33.1765 10.9274 30.2822 10.4994 26.4197 12.3255C24.4259 13.2682 22.9724 14.1533 21.9919 14.9827C21.0037 15.8188 20.5808 16.5256 20.4744 17.098C20.3781 17.6162 20.5391 17.9642 20.8181 18.3431C20.8925 18.4441 20.9715 18.5427 21.0603 18.6517C21.1438 18.7542 21.245 18.8762 21.3347 18.9974C21.4778 19.1907 21.6898 19.5024 21.7595 19.8988L21.78 20.0736L21.7839 20.3158C21.7508 21.548 20.8991 23.1183 17.949 25.2991C16.479 26.3858 15.5677 27.4492 15.1042 28.3626C14.6427 29.2725 14.6536 29.9621 14.8708 30.4329C15.0891 30.9057 15.3397 31.1323 15.6218 31.2669C15.9401 31.4187 16.3907 31.4974 17.0798 31.4974C17.3143 31.4973 17.5031 31.4641 17.8415 31.4202C18.1676 31.378 18.5592 31.339 19.0622 31.3734C20.0559 31.4413 21.3823 31.7882 23.5466 32.7669C25.2872 33.5538 26.5312 33.107 27.9451 32.4505C29.3129 31.8154 31.0693 30.8106 33.24 31.5462C34.7461 32.0567 35.7589 32.7098 36.4079 33.3763C36.9463 33.9292 37.2647 34.5302 37.3464 35.0716C37.6263 35.5858 38.1498 36.2111 38.8533 36.5501C39.5537 36.8874 40.5407 36.9985 41.8796 36.1966C43.6599 35.1303 44.1399 34.046 44.2146 33.1517C44.2968 32.1645 43.9127 31.1987 43.5349 30.3099C43.0643 29.2025 43.1111 28.1156 43.3757 27.0931C43.6331 26.0987 44.1155 25.1 44.5671 24.1605C44.9432 23.3781 45.2391 22.823 45.4597 22.4427C45.5697 22.2531 45.664 22.1016 45.7429 21.9847C45.7596 21.96 45.7786 21.9343 45.7976 21.9075C45.9266 21.4158 46.0339 20.7884 46.0056 20.3089C45.9982 20.1836 45.9825 20.0855 45.9636 20.014C45.9627 20.0107 45.9607 20.0073 45.9597 20.0042C45.3988 20.0553 44.9975 20.2765 44.4548 20.4993C44.2287 20.5922 43.814 20.7578 43.366 20.6956C42.7962 20.6163 42.4354 20.2314 42.2234 19.8118C41.9688 19.3075 41.983 18.7467 42.0525 18.2972C42.1251 17.8285 42.2813 17.3366 42.4548 16.8783C42.6302 16.415 42.8387 15.9463 43.03 15.5228C43.2266 15.0877 43.3998 14.7128 43.529 14.3929C43.6913 13.991 43.6646 13.4229 43.446 12.8724C43.2154 12.2917 42.8852 12.0029 42.7322 11.9476C42.2465 11.7727 41.8442 11.6728 41.4421 11.7552C41.0749 11.8305 40.5331 12.0985 39.8874 13.0579C39.3169 13.9057 39.0365 14.3021 38.9001 14.4935L38.8591 14.6351L38.7742 14.7572C38.5878 15.0269 38.2179 15.3905 37.6736 15.5042C37.0428 15.6357 36.4323 15.3837 35.9509 14.8509C35.6038 14.4665 35.4622 14.0378 35.3894 13.6781C35.354 13.5031 35.3323 13.3305 35.3152 13.1859C35.2968 13.0308 35.283 12.9083 35.2634 12.7835C35.226 12.5449 35.1757 12.3747 35.0896 12.2288C35.0078 12.0907 34.8609 11.9194 34.5525 11.7376ZM38.948 14.1644C38.9488 14.1278 38.9482 14.089 38.9441 14.0491C38.9219 13.8393 38.9435 14.0589 38.948 14.1644Z" fill="black"/>
<path fill-rule="evenodd" clip-rule="evenodd" d="M20.8933 2.38997C27.8539 -0.922139 33.5709 -0.3726 36.7468 1.51009C37.5756 2.00145 38.1365 2.57274 38.5076 3.20442C38.8737 3.82808 39.0228 4.4574 39.1081 5.0052C39.1499 5.27362 39.179 5.54322 39.2058 5.77083C39.2338 6.00865 39.261 6.21186 39.2986 6.39876C39.372 6.76354 39.4771 7.00831 39.6531 7.20442C39.8405 7.41312 39.9793 7.49178 40.0544 7.52083C40.1221 7.5469 40.1655 7.54446 40.199 7.53743C40.2624 7.524 40.3375 7.47701 40.406 7.41634C40.442 7.28408 40.497 7.19333 40.5173 7.1595C40.551 7.10355 40.5962 7.03942 40.6267 6.99641C40.778 6.78302 41.2011 6.19501 42.3533 4.472C43.6744 2.49628 45.0704 1.5398 46.488 1.24739C47.8705 0.962325 49.0989 1.35213 49.9656 1.66634C51.166 2.10172 52.096 3.3437 52.6023 4.6263C53.1207 5.94021 53.3091 7.57322 52.7351 9.00423C52.4955 9.60135 52.1765 10.2975 51.864 10.9935C51.5463 11.7012 51.2274 12.4257 50.9646 13.1243C50.7001 13.8277 50.5068 14.4685 50.4236 15.0091C50.3375 15.5685 50.3896 15.8964 50.4743 16.0658C50.512 16.1409 50.5424 16.1864 50.5622 16.2122C50.5825 16.2097 50.6124 16.2063 50.6521 16.1966C50.7542 16.1715 50.8864 16.1252 51.0681 16.0501C51.7573 15.7652 52.9742 15.1118 54.5193 15.0238C55.375 14.9751 56.0559 15.3313 56.4841 15.9613C56.865 16.5219 56.9994 17.2277 57.0368 17.8636C57.1127 19.154 56.8144 20.659 56.532 21.638L56.4656 21.8665L56.2976 22.0345C56.3209 22.0112 56.2876 22.0427 56.1843 22.1966C56.0922 22.3338 55.9652 22.5375 55.8015 22.8216C55.4737 23.3903 55.0097 24.2624 54.4021 25.5345C53.6241 27.1634 52.9376 28.6131 52.5798 30.0042C52.2294 31.3671 52.2152 32.6063 52.7292 33.8236C53.3354 35.2589 54.2416 37.4117 54.0476 39.7552C53.8457 42.1915 52.4826 44.6559 48.9743 46.7708C46.0827 48.514 43.5619 48.4224 41.5984 47.47C39.7001 46.5493 38.4334 44.8798 37.8308 43.6214L37.74 43.4329V43.224C37.74 43.0538 37.6027 42.4427 36.8308 41.6449C36.0776 40.8666 34.7525 39.9508 32.5212 39.1898C30.0215 38.3374 28.0904 39.4085 25.5222 40.6087C24.2822 41.1882 22.9062 41.7778 21.3562 41.9896C19.7808 42.2047 18.0676 42.0259 16.1423 41.1497C12.65 39.5602 10.7478 39.1116 9.51341 39.0267C8.90292 38.9847 8.42982 39.0293 7.96263 39.0902C7.50816 39.1494 6.97329 39.2395 6.37767 39.2396C5.0992 39.2396 3.91221 39.1036 2.88939 38.6126C1.83074 38.1042 1.03542 37.2592 0.467515 36.0208C-0.297232 34.353 -0.102309 32.3835 0.89525 30.4046C1.89147 28.4286 3.71597 26.3714 6.36595 24.3997C11.4559 20.6127 11.8093 18.574 11.7615 17.7591C11.759 17.718 11.7266 17.5871 11.4949 17.2718C11.3867 17.1247 11.2603 16.9696 11.1081 16.7816C10.9612 16.6 10.7942 16.3928 10.6306 16.1693C9.95688 15.2483 9.28979 13.9761 9.62279 12.1732C9.94616 10.4231 11.1214 8.77495 12.9773 7.19466C14.8407 5.60807 17.4761 4.01601 20.8933 2.38997ZM35.8083 3.09309C33.2962 1.6039 28.2519 0.926972 21.6843 4.05208C18.338 5.64439 15.8622 7.15581 14.1706 8.59602C12.4719 10.0425 11.6472 11.3453 11.4324 12.5072C11.2277 13.6156 11.5986 14.3751 12.116 15.0824C12.25 15.2656 12.3911 15.4418 12.5388 15.6243C12.6812 15.8003 12.8383 15.992 12.9773 16.181C13.2398 16.5381 13.5624 17.0407 13.5984 17.6507C13.7038 19.4416 12.6727 22.0013 7.46459 25.8763C4.96477 27.7362 3.36813 29.5879 2.5388 31.2327C1.71125 32.8743 1.67553 34.2391 2.14037 35.2533C2.55624 36.16 3.06862 36.6573 3.68529 36.9534C4.3379 37.2667 5.19702 37.3988 6.37767 37.3988C6.81906 37.3987 7.18745 37.3359 7.72435 37.2659C8.24895 37.1976 8.85718 37.137 9.63939 37.1908C11.1913 37.2975 13.3262 37.8451 16.905 39.474C18.5151 40.2066 19.8774 40.3343 21.1072 40.1663C22.3623 39.9948 23.5236 39.5116 24.7429 38.9417C27.0936 37.8431 29.7745 36.3089 33.116 37.4486C35.5573 38.2813 37.1538 39.3329 38.1531 40.3656C39.0348 41.2768 39.4837 42.2142 39.5652 42.9759C40.0655 43.9438 41.0436 45.1548 42.4021 45.8138C43.7667 46.4755 45.628 46.6391 48.0242 45.1947C51.1257 43.3249 52.0693 41.3438 52.2136 39.6038C52.3653 37.7718 51.6575 36.0159 51.0339 34.5394C50.3183 32.8449 50.3796 31.1706 50.7976 29.5452C51.2084 27.9479 51.9827 26.331 52.7419 24.7415C53.3639 23.4392 53.8492 22.523 54.2068 21.9027C54.3853 21.593 54.5354 21.3514 54.657 21.1702C54.7069 21.0959 54.7583 21.0216 54.8103 20.9525C55.0463 20.0796 55.2545 18.9023 55.1999 17.972C55.1702 17.466 55.069 17.1522 54.9626 16.9954C54.9034 16.9083 54.8437 16.8482 54.6238 16.8607C53.4787 16.9259 52.6577 17.3838 51.7712 17.7503C51.3878 17.9088 50.8373 18.1186 50.2712 18.0394C49.5829 17.9429 49.1251 17.4795 48.8298 16.8909C48.4921 16.2175 48.496 15.4339 48.6042 14.7298C48.7156 14.0063 48.9599 13.2282 49.2429 12.4759C49.5276 11.719 49.8667 10.9491 50.1853 10.2396C50.5092 9.51812 50.8055 8.87187 51.0271 8.31966C51.3752 7.45202 51.294 6.32519 50.8904 5.30208C50.4744 4.24818 49.8287 3.57483 49.3386 3.3968C48.5144 3.09799 47.7054 2.87461 46.8591 3.04915C46.0477 3.21662 45.0219 3.79296 43.8835 5.49544C42.8284 7.07331 42.3724 7.71381 42.1785 7.98665C42.171 8.01797 42.1658 8.0484 42.1579 8.07552L42.116 8.21809L42.0329 8.34016C41.7808 8.70743 41.2844 9.18949 40.5769 9.33821C39.7814 9.50527 38.9725 9.20205 38.2829 8.43391C37.8059 7.9023 37.603 7.30331 37.4939 6.76106C37.4403 6.49466 37.4071 6.22715 37.3786 5.98567C37.349 5.73388 37.3247 5.51285 37.2898 5.28841C37.2215 4.84993 37.1209 4.47717 36.9206 4.13606C36.7249 3.80281 36.4011 3.44457 35.8083 3.09309ZM42.2126 7.68294C42.2133 7.64825 42.2117 7.61126 42.2077 7.57356C42.1873 7.37918 42.2065 7.56796 42.2126 7.68294Z" fill="black"/>
<path fill-rule="evenodd" clip-rule="evenodd" d="M131.484 11.7913C134.198 11.7913 136.43 12.3069 138.182 13.3372C139.934 14.3334 141.223 15.7935 142.048 17.7171C142.906 19.6065 143.336 21.9086 143.336 24.6224V39.72H136.122V31.9388H135.812C135.675 33.4846 135.159 34.9108 134.266 36.2161C133.408 37.487 132.257 38.5179 130.814 39.3079C129.406 40.0636 127.774 40.4408 125.919 40.4408C124.545 40.4407 123.239 40.2009 122.003 39.72C120.766 39.2391 119.753 38.4656 118.963 37.4007C118.173 36.3015 117.778 34.8413 117.778 33.0208C117.778 31.3378 118.104 29.981 118.757 28.9505C119.409 27.8857 120.285 27.0444 121.385 26.4261C122.484 25.7734 123.687 25.2919 124.992 24.9827C126.297 24.6393 127.585 24.3472 128.856 24.1068C130.642 23.7632 131.983 23.4887 132.876 23.2825C133.769 23.0765 134.369 22.8356 134.678 22.5609C135.022 22.2861 135.194 21.908 135.194 21.4271C135.194 20.4311 134.816 19.6757 134.06 19.1605C133.339 18.6452 132.377 18.387 131.175 18.387C130.419 18.3871 129.663 18.5245 128.908 18.7991C128.152 19.074 127.533 19.5729 127.052 20.2943C126.572 20.9813 126.348 21.9774 126.383 23.2825L118.963 22.7669C118.894 20.6029 119.221 18.8169 119.942 17.4085C120.663 15.9658 121.642 14.849 122.879 14.0589C124.15 13.2345 125.525 12.6505 127.002 12.307C128.513 11.9635 130.007 11.7913 131.484 11.7913ZM135.194 27.095C134.576 27.3698 133.872 27.5932 133.082 27.765C132.292 27.9024 131.484 28.0571 130.66 28.2288C129.87 28.3662 129.131 28.5722 128.444 28.847C127.757 29.0875 127.19 29.4317 126.744 29.8783C126.332 30.2905 126.126 30.8745 126.126 31.6302C126.126 32.5231 126.434 33.2099 127.052 33.6908C127.705 34.1373 128.479 34.3607 129.372 34.3607C129.956 34.3606 130.574 34.2581 131.226 34.0521C131.913 33.8117 132.549 33.4334 133.133 32.9183C133.751 32.4031 134.25 31.699 134.628 30.806C135.006 29.8785 135.194 28.7443 135.194 27.4046V27.095Z" fill="black"/>
<path fill-rule="evenodd" clip-rule="evenodd" d="M179.18 11.7913C181.516 11.7914 183.508 12.2043 185.157 13.0286C186.84 13.8187 188.18 14.9355 189.176 16.3783C190.173 17.821 190.808 19.4871 191.083 21.3763C191.392 23.2656 191.358 25.3097 190.98 27.5081L174.129 27.7708C174.271 29.7941 174.719 31.3206 175.47 32.3509C176.398 33.6219 177.823 34.2581 179.747 34.2581C180.571 34.2581 181.259 34.1547 181.808 33.9486C182.358 33.7425 182.805 33.4504 183.148 33.0726C183.492 32.6605 183.731 32.1796 183.869 31.6302C184.006 31.0463 184.058 30.3935 184.024 29.6722L191.65 30.0843C191.753 31.2179 191.632 32.386 191.289 33.5882C190.98 34.7902 190.379 35.9065 189.486 36.9368C188.593 37.9674 187.339 38.8096 185.724 39.4622C184.144 40.1149 182.134 40.4408 179.695 40.4408C177.119 40.4407 174.955 40.0801 173.203 39.3587C171.485 38.603 170.094 37.5896 169.029 36.3187C167.964 35.0135 167.192 33.5366 166.711 31.888C166.264 30.2391 166.041 28.5036 166.041 26.6829C166.041 24.725 166.282 22.8529 166.762 21.0667C167.278 19.2806 168.05 17.7005 169.081 16.3265C170.146 14.9182 171.502 13.8187 173.151 13.0286C174.834 12.2042 176.844 11.7913 179.18 11.7913ZM179.18 18.3363C177.91 18.3363 176.896 18.6622 176.14 19.3148C175.385 19.9674 174.852 20.8949 174.543 22.097C174.449 22.4515 174.371 22.8273 174.305 23.223L183.615 23.0433C183.581 22.5517 183.512 22.0987 183.405 21.6849C183.165 20.586 182.701 19.7618 182.014 19.2122C181.327 18.6283 180.383 18.3363 179.18 18.3363Z" fill="black"/>
<path fill-rule="evenodd" clip-rule="evenodd" d="M207.166 11.7913C209.879 11.7914 212.112 12.3068 213.864 13.3372C215.616 14.3334 216.904 15.7936 217.728 17.7171C218.587 19.6065 219.016 21.9086 219.016 24.6224V39.72H211.802V31.9388H211.494C211.356 33.4846 210.841 34.9108 209.948 36.2161C209.089 37.4871 207.939 38.5179 206.496 39.3079C205.087 40.0637 203.455 40.4408 201.6 40.4408C200.226 40.4407 198.921 40.2009 197.684 39.72C196.448 39.2391 195.434 38.4656 194.644 37.4007C193.854 36.3015 193.459 34.8414 193.459 33.0208C193.459 31.3378 193.786 29.981 194.438 28.9505C195.091 27.8857 195.967 27.0444 197.066 26.4261C198.165 25.7735 199.367 25.2919 200.673 24.9827C201.978 24.6392 203.267 24.3472 204.538 24.1068C206.324 23.7633 207.663 23.4886 208.556 23.2825C209.45 23.0764 210.051 22.8357 210.36 22.5609C210.704 22.2861 210.876 21.9079 210.876 21.4271C210.876 20.4312 210.497 19.6757 209.742 19.1605C209.021 18.6452 208.058 18.387 206.856 18.387C206.1 18.387 205.344 18.5243 204.589 18.7991C203.833 19.074 203.215 19.5729 202.734 20.2943C202.253 20.9813 202.03 21.9773 202.064 23.2825L194.644 22.7669C194.576 20.603 194.902 18.8168 195.623 17.4085C196.344 15.9658 197.324 14.849 198.56 14.0589C199.831 13.2345 201.205 12.6505 202.682 12.307C204.194 11.9634 205.689 11.7913 207.166 11.7913ZM210.639 27.1966C210.08 27.4258 209.454 27.6147 208.762 27.765C207.972 27.9024 207.165 28.0571 206.341 28.2288C205.551 28.3662 204.812 28.5722 204.125 28.847C203.438 29.0875 202.871 29.4317 202.425 29.8783C202.012 30.2905 201.806 30.8746 201.806 31.6302C201.806 32.5232 202.116 33.2099 202.734 33.6908C203.387 34.1373 204.159 34.3606 205.052 34.3607C205.636 34.3607 206.255 34.2582 206.908 34.0521C207.595 33.8116 208.23 33.4335 208.814 32.9183C209.432 32.4031 209.93 31.6989 210.308 30.806C210.686 29.8785 210.876 28.7443 210.876 27.4046V27.095L210.639 27.1966Z" fill="black"/>
<path d="M96.071 29.8783H96.1736L102.975 5.71126H114.827V39.72H107.097V14.1107H106.995L99.3171 39.72H92.0007L84.4255 14.1107H84.323V39.72H76.5935V5.71126H89.115L96.071 29.8783Z" fill="black"/>
<path d="M160.905 11.8949C161.523 11.8949 162.159 11.9809 162.811 12.1527C163.498 12.3244 164.168 12.599 164.821 12.9769L164.409 22.2523C163.653 21.8057 162.914 21.4789 162.193 21.2728C161.472 21.0323 160.784 20.9124 160.132 20.9124C159.032 20.9125 158.105 21.2219 157.349 21.8402C156.594 22.4585 156.01 23.3685 155.597 24.5706C155.22 25.7729 155.031 27.2329 155.031 28.9505V39.72H146.735V12.513H153.949V23.3343H154.361C154.567 20.4489 154.962 18.1814 155.546 16.5325C156.164 14.8493 156.92 13.6639 157.813 12.9769C158.741 12.2555 159.771 11.8949 160.905 11.8949Z" fill="black"/>
</svg>
