<svg width="1101" height="581" viewBox="0 0 1101 581" fill="none" xmlns="http://www.w3.org/2000/svg">
<path d="M550.564 0.0546875C558.1 1.30744 563.096 5.70411 566.164 9.68848C567.699 11.6815 568.771 13.5946 569.462 15.0127C569.693 15.4868 569.879 15.9092 570.029 16.2617C586.85 18.8225 594.345 25.4394 597.477 31.7637L915.234 31.6934C915.366 31.6155 915.536 31.5117 915.729 31.3809C916.229 31.043 916.852 30.5587 917.402 29.9541C918.492 28.756 919.112 27.3467 918.401 25.5723C917.528 23.3922 918.155 21.1135 919.3 19.3691C920.458 17.6048 922.3 16.1139 924.448 15.3135C926.624 14.503 929.186 14.3777 931.684 15.4873C934.177 16.5952 936.375 18.8298 938.041 22.3096V22.3105C939.463 25.2803 940.858 26.8127 942.002 27.5732C943.096 28.3003 944.069 28.3976 944.908 28.2598C945.805 28.1124 946.634 27.6762 947.278 27.2207C947.592 26.9991 947.84 26.7894 948.004 26.6396C948.085 26.5653 948.145 26.5069 948.18 26.4717L948.209 26.4414C948.209 26.4418 948.211 26.4432 948.223 26.4541L948.492 26.6689C953.472 22.4567 959.059 18.6273 964.63 16.667C969.995 14.7792 975.561 14.5707 980.464 17.6592C980.962 17.0813 981.61 16.3936 982.413 15.6611C984.547 13.7147 987.798 11.4364 992.276 10.0928C1001.18 7.42036 1014.34 8.60359 1032.37 21.9492C1032.9 21.7278 1033.61 21.4522 1034.46 21.1582C1036.45 20.4704 1039.27 19.6751 1042.6 19.2402C1049.05 18.3979 1057.53 18.8993 1065.56 24.2852L1066.34 24.8213L1066.61 25.0156L1066.8 25.2861C1072.7 33.5318 1073.27 42.3519 1072.4 49.0088C1071.96 52.3382 1071.17 55.1572 1070.48 57.1475C1070.19 57.9967 1069.91 58.6983 1069.69 59.2285C1083.05 77.2396 1084.24 90.3915 1081.57 99.2959C1080.23 103.772 1077.95 107.024 1076 109.157C1075.27 109.959 1074.58 110.605 1074 111.104C1077.1 116.002 1076.89 121.565 1075 126.928C1073.05 132.495 1069.22 138.078 1065 143.056L1065.21 143.317C1065.23 143.332 1065.23 143.337 1065.23 143.339C1065.23 143.345 1065.22 143.355 1065.2 143.369C1065.17 143.404 1065.11 143.464 1065.03 143.545C1064.88 143.709 1064.67 143.956 1064.45 144.27C1064 144.914 1063.56 145.742 1063.42 146.638C1063.28 147.475 1063.38 148.447 1064.1 149.54C1064.87 150.683 1066.4 152.078 1069.37 153.498C1072.86 155.161 1075.09 157.355 1076.2 159.847C1077.32 162.343 1077.19 164.905 1076.38 167.08C1075.58 169.228 1074.09 171.069 1072.33 172.228C1070.58 173.373 1068.3 173.999 1066.12 173.129C1064.34 172.419 1062.93 173.04 1061.73 174.13C1061.13 174.68 1060.64 175.303 1060.3 175.803C1060.14 176.048 1060.01 176.255 1059.93 176.395C1059.89 176.464 1059.87 176.517 1059.85 176.548C1059.85 176.549 1059.85 176.55 1059.85 176.552L1059.87 240.697C1060.27 240.687 1060.7 240.687 1061.17 240.709C1063.36 240.809 1066.32 241.329 1069.43 243.005C1075.61 246.33 1081.87 253.897 1084.35 270.127C1084.71 270.277 1085.13 270.464 1085.6 270.694C1087.02 271.384 1088.94 272.455 1090.93 273.987C1094.92 277.051 1099.32 282.041 1100.58 289.571L1100.63 289.9L1100.58 290.229C1099.33 297.761 1094.92 302.754 1090.94 305.82C1088.94 307.354 1087.03 308.425 1085.61 309.115C1085.14 309.346 1084.71 309.532 1084.36 309.683C1081.89 325.913 1075.63 333.482 1069.45 336.811C1066.34 338.487 1063.38 339.009 1061.19 339.11C1060.72 339.132 1060.29 339.131 1059.89 339.121L1059.92 403.263C1059.92 403.266 1059.92 403.269 1059.93 403.272C1059.94 403.304 1059.97 403.356 1060.01 403.426C1060.09 403.565 1060.22 403.772 1060.38 404.018C1060.72 404.517 1061.2 405.14 1061.81 405.689C1063.01 406.778 1064.42 407.399 1066.2 406.688C1068.38 405.817 1070.66 406.442 1072.4 407.586C1074.17 408.743 1075.66 410.584 1076.46 412.731C1077.27 414.906 1077.4 417.469 1076.29 419.966C1075.18 422.458 1072.94 424.653 1069.46 426.318C1066.49 427.74 1064.95 429.136 1064.19 430.279C1063.46 431.372 1063.37 432.345 1063.5 433.183C1063.65 434.079 1064.09 434.907 1064.54 435.551C1064.77 435.864 1064.98 436.111 1065.13 436.275C1065.2 436.357 1065.26 436.416 1065.29 436.451C1065.31 436.469 1065.32 436.479 1065.33 436.484C1065.33 436.486 1065.33 436.487 1065.33 436.487L1065.33 436.482L1065.32 436.481C1065.32 436.482 1065.32 436.486 1065.3 436.502L1065.1 436.765C1069.31 441.741 1073.14 447.324 1075.1 452.892C1076.99 458.253 1077.2 463.817 1074.11 468.717C1074.69 469.215 1075.38 469.861 1076.11 470.663C1078.06 472.796 1080.34 476.046 1081.68 480.521C1084.36 489.424 1083.17 502.576 1069.82 520.593C1070.04 521.123 1070.32 521.825 1070.61 522.675C1071.3 524.665 1072.1 527.484 1072.53 530.813C1073.4 537.47 1072.84 546.291 1066.95 554.538L1066.75 554.81L1066.48 555.003C1058.23 560.895 1049.41 561.462 1042.75 560.595C1039.41 560.161 1036.59 559.367 1034.6 558.68C1033.75 558.386 1033.05 558.11 1032.52 557.889C1014.5 571.242 1001.34 572.431 992.428 569.763C987.949 568.421 984.696 566.145 982.562 564.199C981.758 563.467 981.11 562.779 980.611 562.201C975.711 565.292 970.144 565.087 964.778 563.201C959.207 561.244 953.62 557.416 948.639 553.204L948.375 553.414C948.355 553.432 948.354 553.434 948.354 553.435L948.323 553.404C948.288 553.369 948.229 553.311 948.147 553.236C947.983 553.087 947.736 552.877 947.423 552.655C946.778 552.2 945.95 551.764 945.053 551.617C944.213 551.48 943.24 551.578 942.146 552.306C941.003 553.067 939.608 554.6 938.187 557.57C936.522 561.051 934.326 563.286 931.834 564.396C929.337 565.507 926.775 565.383 924.599 564.573C922.45 563.774 920.607 562.284 919.448 560.521C918.302 558.776 917.675 556.497 918.547 554.316C919.257 552.541 918.635 551.131 917.545 549.934C916.995 549.329 916.371 548.845 915.871 548.507C915.679 548.377 915.51 548.274 915.379 548.196L597.619 548.267C594.49 554.593 587 561.213 570.178 563.782C570.028 564.135 569.842 564.557 569.611 565.031C568.921 566.45 567.85 568.364 566.316 570.357C563.25 574.344 558.256 578.744 550.723 580L550.395 580.055L550.066 580C542.531 578.747 537.535 574.351 534.467 570.366C532.932 568.373 531.86 566.46 531.169 565.042C530.938 564.567 530.751 564.145 530.601 563.792C513.778 561.231 506.28 554.616 503.154 548.29L185.399 548.36C185.268 548.438 185.098 548.543 184.904 548.674C184.405 549.012 183.782 549.496 183.232 550.101C182.143 551.299 181.522 552.708 182.232 554.482C183.106 556.663 182.48 558.942 181.335 560.687C180.177 562.451 178.334 563.942 176.186 564.742C174.01 565.552 171.447 565.677 168.95 564.567C166.613 563.529 164.536 561.5 162.912 558.383L162.593 557.745C161.171 554.775 159.776 553.243 158.632 552.482C157.538 551.755 156.565 551.657 155.726 551.795C154.828 551.942 154 552.379 153.355 552.834C153.042 553.056 152.795 553.266 152.631 553.416C152.55 553.49 152.49 553.548 152.455 553.583C152.438 553.601 152.426 553.613 152.421 553.618V553.617L152.425 553.613C152.424 553.613 152.422 553.611 152.41 553.6L152.142 553.386C147.163 557.597 141.578 561.428 136.008 563.388C130.643 565.276 125.075 565.485 120.172 562.396C119.674 562.973 119.027 563.662 118.225 564.394C116.091 566.34 112.839 568.618 108.361 569.961C99.4543 572.633 86.2949 571.449 68.2656 558.104C67.7349 558.326 67.0325 558.603 66.1816 558.896C64.1904 559.584 61.3703 560.38 58.0391 560.815C51.3787 561.685 42.553 561.122 34.3008 555.233L34.0293 555.04L33.8359 554.769C27.9397 546.523 27.3726 537.703 28.2402 531.046C28.6742 527.716 29.4696 524.897 30.1572 522.907C30.4508 522.058 30.726 521.355 30.9473 520.825C17.5868 502.815 16.3968 489.663 19.0674 480.759C20.41 476.282 22.6882 473.032 24.6348 470.898C25.3667 470.096 26.0532 469.448 26.6309 468.95C23.5401 464.052 23.7464 458.489 25.6328 453.127C27.5915 447.56 31.4204 441.976 35.6338 436.998L35.4316 436.744C35.4103 436.721 35.4063 436.717 35.4053 436.716H35.4033C35.4093 436.71 35.4207 436.7 35.4355 436.686C35.4708 436.65 35.5292 436.591 35.6035 436.51C35.7532 436.346 35.9632 436.098 36.1846 435.785C36.6398 435.141 37.075 434.313 37.2217 433.417C37.3588 432.579 37.2603 431.607 36.5322 430.515C35.7703 429.372 34.2362 427.977 31.2637 426.557C27.7816 424.894 25.5447 422.699 24.4346 420.208C23.3225 417.712 23.4456 415.15 24.2559 412.975C25.056 410.827 26.5479 408.985 28.3125 407.827C30.0573 406.682 32.3359 406.056 34.5166 406.927C36.295 407.637 37.7068 407.014 38.9053 405.925C39.51 405.375 39.9942 404.752 40.332 404.253C40.4984 404.007 40.6231 403.8 40.7031 403.66C40.743 403.591 40.7714 403.538 40.7881 403.507C40.7893 403.505 40.7899 403.502 40.791 403.5L40.7646 339.358C40.3698 339.369 39.9347 339.37 39.4648 339.349C37.2797 339.249 34.3204 338.729 31.2061 337.054C25.0245 333.729 18.7634 326.162 16.2822 309.93C15.9295 309.78 15.5068 309.594 15.0322 309.363C13.6129 308.674 11.6982 307.603 9.70312 306.07C5.7147 303.006 1.31166 298.015 0.0546875 290.485L0 290.156L0.0546875 289.828C1.30844 282.296 5.70864 277.302 9.69531 274.236C11.6895 272.703 13.6037 271.632 15.0225 270.941C15.4969 270.711 15.9188 270.523 16.2715 270.373C18.7442 254.141 25.0015 246.572 31.1816 243.244C34.2954 241.568 37.2552 241.046 39.4404 240.945C39.9103 240.924 40.3454 240.924 40.7402 240.934L40.7139 176.789C40.7123 176.786 40.7108 176.783 40.709 176.779C40.6923 176.748 40.6639 176.696 40.624 176.626C40.5439 176.486 40.4194 176.279 40.2529 176.033C39.9149 175.534 39.4292 174.912 38.8242 174.362C37.6256 173.274 36.2147 172.652 34.4375 173.363C32.2573 174.235 29.9777 173.61 28.2324 172.466C26.4674 171.308 24.976 169.468 24.1748 167.32C23.3636 165.145 23.2377 162.583 24.3486 160.086C25.4575 157.594 27.6935 155.398 31.1748 153.732H31.1758C34.1478 152.312 35.6805 150.916 36.4414 149.773C37.1686 148.681 37.2666 147.71 37.1289 146.872C36.9816 145.976 36.5457 145.148 36.0898 144.504C35.8682 144.191 35.6577 143.943 35.5078 143.779C35.4334 143.698 35.3751 143.639 35.3398 143.604L35.3096 143.574C35.3099 143.574 35.3109 143.571 35.3301 143.551L35.5361 143.292C31.322 138.316 27.4907 132.733 25.5293 127.166C23.6402 121.804 23.4307 116.241 26.5205 111.341C25.9427 110.843 25.2546 110.196 24.5225 109.395C22.5749 107.262 20.2958 104.013 18.9512 99.5371C16.2765 90.6341 17.4602 77.4816 30.8145 59.4639C30.5931 58.9338 30.3161 58.2328 30.0225 57.3838C29.3342 55.3936 28.5387 52.5746 28.1035 49.2451C27.2334 42.5882 27.796 33.7672 33.6885 25.5195L33.8828 25.249L34.1533 25.0547C42.4036 19.1624 51.2284 18.5959 57.8887 19.4629C61.22 19.8966 64.0408 20.6917 66.0322 21.3789C66.8829 21.6724 67.5856 21.9478 68.1162 22.1689C86.1385 8.81575 99.2976 7.62746 108.206 10.2959C112.685 11.6375 115.937 13.914 118.072 15.8594C118.876 16.5915 119.524 17.2788 120.022 17.8564C124.923 14.7662 130.49 14.9721 135.855 16.8574C141.426 18.8147 147.013 22.6409 151.993 26.8516L152.247 26.6494C152.276 26.6226 152.277 26.6233 152.276 26.623L152.307 26.6533C152.342 26.6885 152.401 26.747 152.482 26.8213C152.646 26.9709 152.894 27.1802 153.207 27.4014C153.852 27.8564 154.681 28.2927 155.578 28.4395C156.417 28.5766 157.391 28.4779 158.484 27.75C159.628 26.9885 161.023 25.4549 162.444 22.4844C164.108 19.0039 166.305 16.7684 168.797 15.6592C171.293 14.5481 173.856 14.672 176.032 15.4814C178.181 16.2809 180.023 17.7713 181.183 19.5352C182.329 21.2791 182.956 23.5576 182.084 25.7383C181.374 27.5138 181.996 28.9232 183.086 30.1211C183.636 30.7255 184.259 31.2101 184.759 31.5479C184.951 31.6775 185.12 31.7799 185.251 31.8574L503.01 31.7871C506.137 25.4601 513.629 18.8401 530.449 16.2715C530.6 15.9189 530.786 15.4967 531.017 15.0225C531.707 13.6039 532.779 11.6903 534.313 9.69629C537.38 5.71027 542.375 1.31066 549.908 0.0546875L550.236 0L550.564 0.0546875ZM550.236 2.02734C536.472 4.32243 531.883 18.084 531.883 18.084C513.586 20.6115 506.752 27.8139 504.299 33.7871L184.586 33.8584L184.639 33.8066C184.639 33.8066 178.23 30.6071 180.13 25.2529L180.228 24.9961C182.43 19.4875 170.305 10.6808 164.249 23.3477L163.964 23.9268C157.961 35.7652 150.806 27.9775 150.806 27.9775L151.635 29.1787C141.348 20.2479 128.746 13.1418 119.619 20.6064C119.619 20.6064 104.736 -3.06843 68.376 24.4736L68.1738 24.377C66.1786 23.449 49.7776 16.3547 35.3164 26.6826L34.8145 27.4072C24.5931 42.6198 33.0864 59.658 33.1191 59.7236C5.61613 96.0198 29.2006 110.892 29.2715 110.937C21.8052 120.062 28.9246 132.654 37.8613 142.931L36.6631 142.102C36.7262 142.16 44.6593 149.503 32.0381 155.537C19.3667 161.598 28.1844 173.71 33.6943 171.506C39.1934 169.306 42.4987 175.884 42.5117 175.91L42.7139 175.71L42.7412 243.14C42.7412 243.14 22.6635 238.559 18.084 271.808C18.084 271.808 4.31781 276.396 2.02734 290.156C4.31896 303.885 18.0382 308.477 18.0938 308.495C22.6909 341.743 42.7646 337.152 42.7646 337.152L42.792 404.577L42.5918 404.375C42.5918 404.375 39.3898 410.78 34.0322 408.881L33.7754 408.784C28.2633 406.583 19.4512 418.7 32.126 424.752C44.8006 430.807 36.7588 438.188 36.7588 438.188L37.96 437.358C29.0237 447.639 21.9135 460.233 29.3828 469.354C29.3259 469.39 5.72671 484.272 33.252 520.565C33.252 520.565 24.4389 538.189 35.4629 553.605C50.8704 564.6 68.4743 555.826 68.5244 555.801C104.898 583.325 119.769 559.646 119.769 559.646C128.9 567.108 141.499 559.993 151.782 551.062L150.953 552.26C150.972 552.239 158.343 544.234 164.396 556.881C170.461 569.545 182.581 560.732 180.376 555.226C178.171 549.719 184.783 546.414 184.783 546.414L184.731 546.361L504.444 546.29C506.895 552.261 513.734 559.461 532.034 561.98C532.034 561.98 536.483 575.312 549.755 577.912L550.394 578.027C564.158 575.732 568.744 561.971 568.744 561.971C587.042 559.443 593.875 552.241 596.332 546.268L916.045 546.196L915.992 546.248C916.023 546.264 922.6 549.563 920.403 555.059C918.201 560.567 930.326 569.374 936.382 556.707C942.432 544.058 949.804 552.058 949.825 552.08L948.999 550.88C959.286 559.811 971.888 566.917 981.015 559.452C981.056 559.518 995.948 583.089 1032.26 555.585C1032.26 555.585 1049.35 564.12 1064.59 553.878L1065.32 553.376C1076.33 537.956 1067.51 520.334 1067.51 520.334C1095 484.057 1071.46 469.183 1071.36 469.122C1078.83 459.996 1071.71 447.405 1062.77 437.128L1063.97 437.954C1063.97 437.954 1056.17 430.805 1068.02 424.8L1068.6 424.515C1081.27 418.454 1072.45 406.341 1066.94 408.545C1061.46 410.738 1058.16 404.206 1058.12 404.142L1057.92 404.341L1057.89 336.917C1057.96 336.931 1077.98 341.443 1082.55 308.249C1082.55 308.249 1096.32 303.66 1098.61 289.9C1096.32 276.18 1082.61 271.585 1082.54 271.562C1077.95 238.317 1057.87 242.904 1057.87 242.904L1057.85 175.479L1058.05 175.68C1058.07 175.634 1061.37 169.078 1066.86 171.271C1072.29 173.438 1080.91 161.73 1069.09 155.591L1068.51 155.303C1055.84 149.25 1063.87 141.874 1063.88 141.867L1062.68 142.697C1071.61 132.417 1078.72 119.822 1071.25 110.7C1071.38 110.624 1094.87 95.7332 1067.38 59.4893C1067.38 59.4893 1075.93 42.4127 1065.68 27.1738L1065.17 26.4492C1049.75 15.4395 1032.11 24.2539 1032.11 24.2539L1031.26 23.6182C995.572 -2.85713 980.921 20.3262 980.869 20.4092C971.738 12.9472 959.139 20.062 948.855 28.9932L949.682 27.7949C949.682 27.7949 942.528 35.588 936.522 23.752L936.237 23.1738C930.173 10.51 918.052 19.3225 920.258 24.8291C922.455 30.316 915.898 33.6171 915.852 33.6406L915.902 33.6934L596.189 33.7646L595.946 33.2012C593.294 27.348 586.322 20.5145 568.597 18.0742C568.597 18.0742 564.005 4.3164 550.236 2.02734ZM185.678 548.202H185.68L185.682 548.201C185.681 548.202 185.679 548.202 185.678 548.202ZM1016.41 508.284H84.8477V71.7705H1016.41V508.284ZM86.8477 506.284H1014.41V73.7695H86.8477V506.284ZM1003.96 496.454H96.0547V84.2246H1003.96V496.454ZM98.0547 494.454H1001.96V86.2246H98.0547V494.454ZM914.95 31.8545C914.951 31.8543 914.952 31.8542 914.953 31.8535L914.955 31.8525H914.954L914.95 31.8545Z" fill="white"/>
</svg>
