<svg width="663" height="511" viewBox="0 0 663 511" fill="none" xmlns="http://www.w3.org/2000/svg">
<path fill-rule="evenodd" clip-rule="evenodd" d="M586.633 446.987H76.2256V63.3262H586.633V446.987ZM78.2256 444.987H584.633V65.3262H78.2256V444.987Z" fill="black"/>
<path fill-rule="evenodd" clip-rule="evenodd" d="M332.188 0.0556641C338.889 1.17 343.329 5.08102 346.05 8.61426C347.411 10.3817 348.362 12.0784 348.975 13.3359C349.153 13.7023 349.302 14.0342 349.426 14.3203C364.054 16.5763 370.701 22.3343 373.527 27.9219L499.596 27.8604C499.698 27.7985 499.823 27.7208 499.962 27.627C500.391 27.337 500.922 26.9239 501.389 26.4111C502.311 25.3965 502.798 24.2534 502.221 22.8125C501.414 20.7991 502 18.7112 503.033 17.1367C504.08 15.5424 505.74 14.1997 507.676 13.4785C509.639 12.7472 511.958 12.633 514.219 13.6377C516.475 14.6405 518.443 16.6539 519.926 19.75C521.164 22.3363 522.366 23.6431 523.323 24.2793C524.23 24.8818 525.023 24.9576 525.704 24.8457C526.444 24.7242 527.137 24.3617 527.687 23.9736C527.952 23.7858 528.163 23.6076 528.301 23.4814C528.369 23.4192 528.418 23.3703 528.446 23.3418L528.468 23.3203L528.467 23.3223C528.467 23.3223 528.474 23.3281 528.495 23.3477L528.714 23.5225C533.106 19.8039 538.052 16.4071 542.997 14.667C547.694 13.0141 552.602 12.8025 556.948 15.4541C557.371 14.9741 557.901 14.4188 558.543 13.833C560.439 12.1034 563.328 10.0793 567.306 8.88574C575.211 6.51379 586.819 7.579 602.648 19.2617C603.102 19.0751 603.681 18.8518 604.369 18.6143C606.131 18.0056 608.626 17.3018 611.574 16.917C617.283 16.1717 624.804 16.6138 631.922 21.3896L632.609 21.8652L632.881 22.0586L633.074 22.3301C638.303 29.6424 638.804 37.4625 638.036 43.3525C637.652 46.2985 636.948 48.7927 636.34 50.5537C636.103 51.2395 635.879 51.8174 635.692 52.2705C647.388 68.0844 648.46 79.6861 646.09 87.5889C644.897 91.5651 642.873 94.4537 641.144 96.3496C640.558 96.9915 640.001 97.5194 639.521 97.9424C642.176 102.285 641.967 107.19 640.315 111.886C638.577 116.827 635.181 121.77 631.462 126.161L631.635 126.379C631.657 126.403 631.662 126.408 631.662 126.408L631.664 126.407L631.643 126.429C631.614 126.457 631.565 126.506 631.503 126.574C631.377 126.712 631.199 126.922 631.012 127.188C630.624 127.736 630.262 128.43 630.141 129.168C630.029 129.848 630.105 130.64 630.709 131.546C631.346 132.502 632.654 133.704 635.242 134.94L635.811 135.224C638.589 136.667 640.419 138.526 641.361 140.64C642.368 142.899 642.255 145.218 641.524 147.181C640.803 149.116 639.46 150.777 637.865 151.823C636.29 152.857 634.203 153.441 632.189 152.638C630.745 152.061 629.6 152.549 628.585 153.472C628.072 153.938 627.658 154.47 627.368 154.898C627.226 155.109 627.12 155.285 627.052 155.403C627.034 155.435 627.018 155.463 627.006 155.485L627.029 211.554C627.314 211.551 627.618 211.554 627.941 211.568C629.89 211.658 632.528 212.122 635.304 213.615C640.806 216.575 646.32 223.272 648.522 237.494C648.809 237.618 649.142 237.769 649.51 237.947C650.768 238.559 652.466 239.508 654.234 240.867C657.77 243.584 661.687 248.02 662.805 254.717L662.859 255.045L662.805 255.374C661.69 262.072 657.775 266.511 654.24 269.229C652.472 270.589 650.775 271.539 649.517 272.151C649.149 272.33 648.816 272.479 648.529 272.604C646.334 286.827 640.824 293.527 635.322 296.489C632.547 297.984 629.91 298.449 627.961 298.539C627.638 298.554 627.332 298.555 627.048 298.553L627.071 354.619C627.084 354.642 627.1 354.671 627.119 354.704C627.187 354.822 627.293 355 627.436 355.21C627.726 355.638 628.14 356.169 628.653 356.635C629.668 357.557 630.812 358.045 632.256 357.468C634.269 356.662 636.357 357.245 637.933 358.278C639.528 359.324 640.872 360.984 641.594 362.919C642.326 364.881 642.44 367.2 641.435 369.46C640.431 371.715 638.415 373.682 635.317 375.164C632.729 376.402 631.423 377.605 630.786 378.562C630.183 379.467 630.108 380.259 630.22 380.939C630.341 381.678 630.703 382.372 631.092 382.921C631.279 383.186 631.458 383.395 631.584 383.533C631.646 383.602 631.695 383.651 631.724 383.68C631.732 383.688 631.739 383.695 631.743 383.699C631.743 383.699 631.738 383.704 631.723 383.721L631.542 383.946C635.263 388.336 638.663 393.279 640.404 398.222C642.058 402.916 642.269 407.821 639.616 412.165C640.096 412.588 640.652 413.116 641.238 413.758C642.969 415.653 644.995 418.54 646.189 422.516C648.563 430.417 647.495 442.019 635.806 457.838C635.992 458.291 636.218 458.869 636.455 459.556C637.064 461.317 637.768 463.811 638.153 466.757C638.923 472.647 638.426 480.467 633.201 487.781L633.007 488.053L632.736 488.246C625.42 493.471 617.595 493.971 611.702 493.204C608.755 492.82 606.26 492.118 604.498 491.51C603.81 491.272 603.231 491.048 602.777 490.861C586.953 502.55 575.346 503.622 567.439 501.254C563.461 500.062 560.571 498.039 558.674 496.311C558.031 495.725 557.502 495.168 557.078 494.688C552.734 497.342 547.826 497.134 543.128 495.483C538.183 493.746 533.236 490.351 528.842 486.633L528.622 486.809C528.594 486.835 528.594 486.835 528.594 486.835L528.595 486.836L528.596 486.838C528.591 486.833 528.584 486.825 528.573 486.814C528.545 486.786 528.496 486.738 528.428 486.676C528.29 486.55 528.079 486.371 527.813 486.184C527.264 485.796 526.571 485.434 525.831 485.312C525.149 485.201 524.357 485.277 523.45 485.88C522.493 486.517 521.291 487.823 520.054 490.41C518.573 493.507 516.606 495.522 514.351 496.525C512.091 497.531 509.772 497.418 507.809 496.688C505.873 495.967 504.211 494.625 503.163 493.031C502.129 491.457 501.544 489.369 502.349 487.355C502.925 485.914 502.437 484.771 501.514 483.757C501.047 483.244 500.516 482.83 500.087 482.54C499.949 482.447 499.825 482.37 499.723 482.309L373.653 482.37C370.829 487.96 364.186 493.72 349.556 495.983C349.432 496.27 349.284 496.603 349.105 496.97C348.494 498.228 347.543 499.924 346.184 501.692C343.465 505.227 339.026 509.142 332.326 510.259L331.998 510.313L331.669 510.259C324.967 509.145 320.527 505.233 317.806 501.699C316.445 499.932 315.494 498.236 314.882 496.979C314.703 496.612 314.554 496.28 314.43 495.993C299.801 493.737 293.152 487.98 290.33 482.392L163.262 482.453C163.16 482.515 163.036 482.593 162.897 482.687C162.469 482.976 161.937 483.39 161.471 483.903C160.548 484.918 160.061 486.06 160.638 487.501C161.444 489.514 160.86 491.602 159.826 493.177C158.779 494.771 157.119 496.115 155.184 496.836C153.221 497.567 150.901 497.681 148.641 496.677C146.384 495.674 144.417 493.66 142.934 490.563C141.696 487.977 140.493 486.671 139.536 486.035C138.63 485.432 137.837 485.357 137.155 485.469C136.416 485.59 135.721 485.953 135.172 486.341C134.906 486.529 134.697 486.707 134.559 486.833C134.49 486.895 134.44 486.943 134.412 486.972C134.398 486.986 134.39 486.996 134.387 486.999L134.393 486.992C134.393 486.992 134.392 486.992 134.369 486.971L134.146 486.792C129.754 490.51 124.81 493.908 119.865 495.647C115.167 497.301 110.259 497.512 105.912 494.859C105.489 495.339 104.961 495.896 104.318 496.481C102.422 498.211 99.5332 500.234 95.5557 501.428C87.6507 503.799 76.0425 502.733 60.2129 491.052C59.7592 491.238 59.1806 491.463 58.4932 491.7C56.7312 492.309 54.2357 493.013 51.2881 493.397C45.3952 494.167 37.5709 493.671 30.2529 488.449L29.9814 488.255L29.7871 487.984C24.5584 480.672 24.0586 472.852 24.8262 466.962C25.2101 464.016 25.9141 461.522 26.5225 459.761C26.7595 459.075 26.9835 458.496 27.1699 458.043C15.4743 442.23 14.4026 430.628 16.7725 422.726C17.965 418.749 19.989 415.861 21.7188 413.965C22.3042 413.323 22.8591 412.794 23.3389 412.371C20.6847 408.029 20.8942 403.123 22.5459 398.428C24.2845 393.486 27.68 388.543 31.3994 384.152L31.2129 383.919L31.2002 383.905C31.2048 383.901 31.2115 383.894 31.2197 383.886C31.2482 383.857 31.2971 383.808 31.3594 383.74C31.4854 383.602 31.663 383.392 31.8506 383.127C32.2385 382.578 32.6006 381.885 32.7217 381.146C32.8331 380.466 32.7567 379.674 32.1533 378.769C31.5161 377.812 30.2083 376.611 27.6191 375.374C24.5209 373.895 22.5048 371.928 21.5 369.674C20.4934 367.415 20.6071 365.096 21.3379 363.134C22.0588 361.198 23.4024 359.538 24.9971 358.491C26.572 357.458 28.659 356.873 30.6729 357.677C32.1173 358.253 33.2624 357.764 34.2773 356.842C34.7902 356.376 35.2043 355.844 35.4941 355.416C35.6362 355.206 35.7427 355.029 35.8105 354.911C35.8282 354.88 35.8423 354.852 35.8545 354.83L35.832 298.762C35.5481 298.765 35.2436 298.763 34.9209 298.748C32.9722 298.659 30.3335 298.195 27.5576 296.702C22.0551 293.742 16.5414 287.044 14.3389 272.82C14.0521 272.696 13.7198 272.548 13.3525 272.369C12.0939 271.758 10.3953 270.808 8.62598 269.449C5.0893 266.732 1.17273 262.296 0.0546875 255.6L0 255.271L0.0546875 254.941C1.16986 248.243 5.08399 243.805 8.61914 241.086C10.3875 239.726 12.0846 238.776 13.3428 238.164C13.7101 237.985 14.0423 237.835 14.3291 237.711C16.5243 223.487 22.0359 216.787 27.5371 213.825C30.3121 212.331 32.9498 211.866 34.8984 211.776C35.2213 211.761 35.5265 211.759 35.8105 211.762L35.7871 155.691C35.7745 155.669 35.7591 155.639 35.7402 155.606C35.6724 155.488 35.566 155.312 35.4238 155.102C35.1338 154.673 34.7192 154.142 34.2061 153.676C33.1909 152.754 32.0462 152.266 30.6025 152.844C28.5894 153.649 26.5019 153.065 24.9268 152.032C23.3317 150.986 21.9875 149.327 21.2656 147.392C20.5338 145.429 20.4194 143.111 21.4248 140.851C22.4284 138.595 24.4442 136.628 27.542 135.146L28.0127 134.915C30.2911 133.76 31.4765 132.647 32.0732 131.751C32.6758 130.846 32.7514 130.054 32.6396 129.374C32.5182 128.636 32.1559 127.942 31.7676 127.394C31.5797 127.128 31.4016 126.918 31.2754 126.78C31.2131 126.712 31.1643 126.663 31.1357 126.635L31.1143 126.613L31.1162 126.614C31.1162 126.614 31.1202 126.608 31.1348 126.593L31.3145 126.368C27.5943 121.979 24.1962 117.037 22.4551 112.096C20.801 107.401 20.5886 102.495 23.2412 98.1514C22.7613 97.7288 22.2057 97.2006 21.6201 96.5596C19.8894 94.6646 17.8644 91.7764 16.6699 87.8008C14.2962 79.8992 15.3629 68.2972 27.0527 52.4775C26.8662 52.0245 26.6415 51.4466 26.4043 50.7607C25.7953 48.9999 25.0912 46.5062 24.7061 43.5605C23.9362 37.6705 24.4329 29.8492 29.6582 22.5352L29.8516 22.2646L30.123 22.0703C37.4394 16.8451 45.2632 16.3462 51.1562 17.1133C54.1039 17.497 56.5993 18.1996 58.3613 18.8076C59.0482 19.0446 59.6265 19.2688 60.0801 19.4551C75.9046 7.76514 87.5134 6.6951 95.4199 9.06348C99.3981 10.2552 102.288 12.2781 104.185 14.0068C104.827 14.5925 105.357 15.1481 105.78 15.6279C110.125 12.9742 115.033 13.1831 119.731 14.834C124.676 16.5713 129.621 19.9645 134.015 23.6816L134.251 23.4932C134.259 23.4856 134.263 23.4824 134.263 23.4824L134.282 23.502C134.311 23.5305 134.361 23.5784 134.429 23.6406C134.567 23.7666 134.776 23.9453 135.042 24.1328C135.591 24.5204 136.285 24.8819 137.024 25.0029C137.706 25.1144 138.5 25.038 139.406 24.4346C140.363 23.7975 141.565 22.4909 142.803 19.9043L143.086 19.3369C144.53 16.5597 146.391 14.7303 148.506 13.7891C150.766 12.7832 153.085 12.8956 155.048 13.626C156.984 14.3463 158.645 15.6892 159.692 17.2832C160.727 18.8572 161.313 20.9442 160.508 22.958C159.932 24.3998 160.419 25.5432 161.343 26.5576C161.809 27.0702 162.341 27.4837 162.77 27.7734C162.906 27.8658 163.029 27.9426 163.131 28.0039L290.201 27.9434C293.023 22.353 299.668 16.592 314.297 14.3291C314.421 14.0427 314.571 13.7104 314.749 13.3438C315.361 12.0859 316.312 10.3891 317.672 8.62109C320.392 5.08638 324.83 1.17273 331.53 0.0556641L331.858 0L332.188 0.0556641ZM331.859 2.02832C319.775 4.04311 315.736 16.1139 315.728 16.1406C299.645 18.3621 293.64 24.6933 291.483 29.9434L162.481 30.0049L162.527 29.96C162.482 29.9371 156.903 27.128 158.565 22.4414L158.65 22.2158C160.586 17.3742 149.929 9.63436 144.606 20.7676L144.356 21.2754C139.1 31.6416 132.838 24.8878 132.791 24.8369L133.521 25.8916C124.479 18.0422 113.403 11.7968 105.381 18.3574C105.328 18.2729 92.2348 -2.40077 60.3428 21.7568L60.165 21.6719C58.4126 20.8568 43.9961 14.6202 31.2852 23.6982L30.8438 24.335C21.8433 37.7313 29.3545 52.7393 29.3545 52.7393C5.16821 84.6586 25.9339 97.7266 25.9727 97.751C19.4111 105.772 25.6681 116.838 33.5225 125.87L32.4688 125.142C32.5163 125.185 39.5037 131.645 28.4043 136.951L27.8965 137.204C17.6739 142.521 24.8565 152.568 29.6309 151.068L29.8604 150.986C34.6924 149.054 37.5966 154.832 37.6094 154.857L37.7871 154.682L37.8115 213.946C37.8115 213.946 20.1646 209.92 16.1396 239.144C16.0667 239.168 4.03437 243.213 2.02734 255.271C4.04228 267.339 16.1049 271.374 16.1484 271.389C20.1834 300.569 37.7823 296.587 37.832 296.576L37.8555 355.837L37.6797 355.659C37.6523 355.714 34.7523 361.459 29.9307 359.534C25.086 357.601 17.3417 368.25 28.4814 373.569C39.6211 378.892 32.5537 385.378 32.5537 385.378L33.6094 384.648C25.7553 393.684 19.506 404.754 26.0703 412.771C25.9827 412.826 5.30103 425.911 29.4717 457.781C29.4271 457.871 21.753 473.311 31.4141 486.821C44.9475 496.478 60.4103 488.783 60.4736 488.751C92.3667 512.884 105.451 492.228 105.513 492.13C113.538 498.688 124.611 492.435 133.649 484.585L132.921 485.638C132.954 485.601 139.424 478.599 144.737 489.7C149.985 500.656 160.388 493.322 158.863 488.474L158.781 488.245C156.855 483.436 162.581 480.538 162.654 480.501L162.609 480.454L291.611 480.392C293.766 485.639 299.776 491.968 315.86 494.182C315.888 494.264 319.812 505.906 331.436 508.184L331.997 508.286C344.053 506.276 348.097 494.257 348.125 494.173C364.207 491.951 370.214 485.621 372.373 480.371L500.375 480.309L500.328 480.354C500.37 480.376 506.134 483.274 504.206 488.098L504.124 488.327C502.603 493.177 513.01 500.505 518.249 489.547C523.574 478.415 530.063 485.479 530.064 485.48L529.339 484.425C538.38 492.274 549.456 498.519 557.478 491.959C557.539 492.057 570.635 512.71 602.517 488.561C602.593 488.599 617.569 496.039 630.937 487.061L631.573 486.619C641.223 473.112 633.557 457.683 633.505 457.578C657.669 425.689 636.964 412.615 636.886 412.566C643.448 404.546 637.191 393.479 629.336 384.446L630.39 385.172C630.331 385.118 623.582 378.865 633.946 373.61L634.455 373.36C645.592 368.033 637.842 357.387 632.999 359.324L632.773 359.41C628.099 361.07 625.289 355.532 625.25 355.454L625.072 355.63L625.048 296.369C625.098 296.38 642.7 300.351 646.72 271.173C646.78 271.153 658.45 267.234 660.73 255.606L660.832 255.046C658.822 243.005 646.813 238.961 646.714 238.928C642.678 209.744 625.073 213.729 625.03 213.739L625.006 154.478L625.182 154.655C625.182 154.655 628.086 148.846 632.931 150.78C637.7 152.684 645.279 142.394 634.889 136.998L634.381 136.745C623.279 131.441 630.261 124.98 630.309 124.937L629.253 125.666C637.107 116.63 643.356 105.56 636.791 97.543C636.791 97.543 657.612 84.4697 633.391 52.5322C633.435 52.4442 641.108 37.0044 631.447 23.4932C617.886 13.8169 602.389 21.5635 602.389 21.5635C570.42 -2.6307 557.35 18.1846 557.35 18.1846C549.324 11.626 538.25 17.8796 529.212 25.7295L529.938 24.6768C529.88 24.7396 523.426 31.6939 518.122 20.6143C512.792 9.48376 502.14 17.2295 504.078 22.0693C506.016 26.9087 500.204 29.8135 500.204 29.8135L500.25 29.8604L372.248 29.9229L372.034 29.4277C369.703 24.2833 363.575 18.2767 347.996 16.1318C347.99 16.114 343.951 4.03895 331.859 2.02832ZM626.968 155.556L626.969 155.554L626.97 155.552L626.971 155.551L626.97 155.55C626.969 155.552 626.968 155.556 626.968 155.556Z" fill="black"/>
<path d="M31.1934 383.912L31.1953 383.909L31.1982 383.907L31.1934 383.912Z" fill="black"/>
<path d="M134.259 23.4775L134.261 23.4805C134.259 23.4784 134.256 23.4756 134.256 23.4756L134.259 23.4775Z" fill="black"/>
</svg>
